<svg width="44" height="44" viewBox="0 0 44 44" fill="none" xmlns="http://www.w3.org/2000/svg">
<g filter="url(#filter0_d_348_2401)">
<circle cx="22.2641" cy="22.2641" r="20.2641" fill="#FFF4E4"/>
</g>
<mask id="mask0_348_2401" style="mask-type:alpha" maskUnits="userSpaceOnUse" x="2" y="2" width="41" height="41">
<circle cx="22.2641" cy="22.2641" r="20.2641" fill="#FFF4E4"/>
</mask>
<g mask="url(#mask0_348_2401)">
<path d="M21.2134 18.7919V13.5843H19.6084V18.7919H21.2134Z" fill="#4E773F"/>
<path d="M26.5419 18.7919H24.9369L25.7618 13.3271H27.3765L26.5419 18.7919Z" fill="#4E773F"/>
<path d="M16.8155 7.9833C17.2014 7.5397 17.5099 7.3632 18.0379 7.10511C18.8097 6.7278 19.3332 6.59801 20.1903 6.65271C21.0091 6.70496 21.516 6.84008 22.1833 7.31801C22.8772 7.81493 23.2194 8.2627 23.4854 9.07438C23.7901 10.0039 23.5651 11.017 23.3526 11.5759C23.0777 12.2985 22.679 12.6169 22.0505 13.0661C21.0096 13.8101 20.1179 14.0506 18.8616 13.8113C17.8804 13.6243 17.0015 12.8798 16.6295 12.5605C16.2574 12.2412 15.8666 11.6173 15.8854 10.9106C15.8933 10.6131 15.9917 10.1388 15.9917 10.1388C15.9917 10.1388 16.0527 9.50077 16.1777 9.10099C16.3278 8.62125 16.4857 8.36233 16.8155 7.9833Z" fill="#91A659"/>
<path d="M19.1006 7.45106C19.5683 7.30203 20.199 7.38897 20.4558 7.45106C20.7216 7.52202 21.2664 7.58335 21.6782 7.87685C22.1894 8.24122 22.4489 8.83487 22.5817 9.20743C22.7146 9.57999 22.688 10.1654 22.5817 10.7243C22.4754 11.2831 22.1034 12.0017 21.0405 12.4807C19.9775 12.9597 19.0475 12.6669 18.1971 12.2944C17.3468 11.9218 17.0544 11.2033 16.9747 10.9106C16.895 10.6178 16.9481 10.3783 16.9747 9.89933C17.0013 9.42032 17.1342 8.96792 17.5062 8.4623C17.8782 7.95668 18.516 7.63734 19.1006 7.45106Z" fill="white"/>
<path d="M21.4922 9.15428C21.3859 9.09041 21.0404 8.98574 20.881 8.94139C20.2167 8.88816 19.7649 9.15428 19.4195 9.47362C19.074 9.79296 18.9005 10.4904 19.1803 11.0437C19.3875 11.4535 19.6737 11.6214 20.1104 11.7622C20.5055 11.8896 20.7216 11.8687 21.1733 11.7622C21.6251 11.6558 22.0237 10.9639 22.0768 10.7776C22.13 10.5913 22.2365 10.1274 22.0768 9.76635C21.943 9.46393 21.6251 9.23411 21.4922 9.15428Z" fill="#000001"/>
<mask id="mask1_348_2401" style="mask-type:alpha" maskUnits="userSpaceOnUse" x="19" y="8" width="4" height="4">
<path d="M21.4922 9.15416C21.3859 9.09029 21.0404 8.98562 20.881 8.94126C20.2167 8.88804 19.7649 9.15416 19.4195 9.4735C19.074 9.79284 18.9005 10.4902 19.1803 11.0436C19.3875 11.4534 19.6737 11.6213 20.1104 11.7621C20.5055 11.8895 20.7216 11.8685 21.1733 11.7621C21.6251 11.6557 22.0237 10.9638 22.0768 10.7775C22.13 10.5912 22.2365 10.1273 22.0768 9.76623C21.943 9.46381 21.6251 9.23399 21.4922 9.15416Z" fill="#000001"/>
</mask>
<g mask="url(#mask1_348_2401)">
<path d="M20.429 9.4469C20.3808 9.27695 20.2601 9.09785 20.1892 9.00914C20.1626 8.97477 19.8554 9.09522 19.6584 9.20739C19.1944 9.47153 18.993 9.91238 19.02 10.4462C19.028 10.6049 19.0465 10.7921 19.0997 10.8454C19.1528 10.8986 19.459 10.8628 19.6584 10.8041C20.0388 10.6921 20.2682 10.4858 20.4024 10.1122C20.4903 9.86752 20.4999 9.69702 20.429 9.4469Z" fill="#666666"/>
</g>
<path d="M30.7919 8.11196C30.406 7.66836 30.0975 7.49186 29.5696 7.23377C28.7977 6.85646 28.2743 6.72667 27.4171 6.78138C26.5983 6.83363 26.0914 6.96875 25.4241 7.44667C24.7302 7.9436 24.388 8.39136 24.122 9.20304C23.8174 10.1325 24.0423 11.1457 24.2549 11.7045C24.5298 12.4272 24.9284 12.7455 25.557 13.1948C26.5978 13.9388 27.4896 14.1793 28.7458 13.9399C29.7271 13.7529 30.6059 13.0085 30.9779 12.6892C31.35 12.3698 31.7408 11.746 31.722 11.0392C31.7141 10.7418 31.6157 10.2675 31.6157 10.2675C31.6157 10.2675 31.5547 9.62943 31.4297 9.22965C31.2796 8.74991 31.1217 8.491 30.7919 8.11196Z" fill="#91A659"/>
<path d="M28.5068 7.57972C28.0391 7.4307 27.4085 7.51763 27.1516 7.57972C26.8858 7.65069 26.341 7.71201 25.9292 8.00551C25.418 8.36988 25.1586 8.96353 25.0257 9.33609C24.8928 9.70865 24.9194 10.2941 25.0257 10.853C25.132 11.4118 25.504 12.1303 26.567 12.6093C27.6299 13.0883 28.56 12.7956 29.4103 12.423C30.2607 12.0505 30.553 11.332 30.6327 11.0392C30.7124 10.7465 30.6593 10.507 30.6327 10.028C30.6061 9.54898 30.4733 9.09659 30.1012 8.59096C29.7292 8.08534 29.0914 7.766 28.5068 7.57972Z" fill="white"/>
<path d="M26.1142 9.28282C26.2205 9.21895 26.566 9.11428 26.7254 9.06993C27.3898 9.0167 27.8415 9.28282 28.187 9.60216C28.5324 9.9215 28.706 10.6189 28.4261 11.1722C28.2189 11.5821 27.9327 11.75 27.4961 11.8908C27.1009 12.0182 26.8849 11.9972 26.4331 11.8908C25.9814 11.7843 25.5828 11.0924 25.5296 10.9061C25.4765 10.7198 25.3699 10.256 25.5296 9.89489C25.6634 9.59247 25.9814 9.36265 26.1142 9.28282Z" fill="#000001"/>
<mask id="mask2_348_2401" style="mask-type:alpha" maskUnits="userSpaceOnUse" x="25" y="9" width="4" height="3">
<path d="M26.1152 9.28282C26.2215 9.21895 26.567 9.11428 26.7264 9.06993C27.3908 9.0167 27.8425 9.28282 28.188 9.60216C28.5334 9.9215 28.7069 10.6189 28.4271 11.1722C28.2199 11.5821 27.9337 11.75 27.497 11.8908C27.1019 12.0182 26.8859 11.9972 26.4341 11.8908C25.9824 11.7843 25.5838 11.0924 25.5306 10.9061C25.4775 10.7198 25.3709 10.256 25.5306 9.89489C25.6644 9.59247 25.9824 9.36265 26.1152 9.28282Z" fill="#000001"/>
</mask>
<g mask="url(#mask2_348_2401)">
<path d="M27.1784 9.57556C27.2266 9.40561 27.3474 9.22651 27.4182 9.13781C27.4448 9.10343 27.752 9.22388 27.949 9.33605C28.413 9.60019 28.6144 10.041 28.5875 10.5748C28.5794 10.7336 28.5609 10.9208 28.5077 10.974C28.4546 11.0272 28.1484 10.9915 27.949 10.9328C27.5686 10.8207 27.3392 10.6145 27.205 10.2409C27.1171 9.99618 27.1075 9.82569 27.1784 9.57556Z" fill="#666666"/>
</g>
<path d="M29.1094 18.7917H17.04C10.0038 25.2209 8.62998 37.3076 8.82257 42.4509H39.1244C35.067 38.8506 30.7572 25.178 29.1094 18.7917Z" fill="url(#paint0_linear_348_2401)"/>
<mask id="mask3_348_2401" style="mask-type:alpha" maskUnits="userSpaceOnUse" x="8" y="18" width="32" height="25">
<path d="M29.1094 18.7917H17.04C10.0038 25.2209 8.62998 37.3076 8.82257 42.4509H39.1244C35.067 38.8506 30.7572 25.178 29.1094 18.7917Z" fill="url(#paint1_linear_348_2401)"/>
</mask>
<g mask="url(#mask3_348_2401)">
<path d="M35.9788 42.6437C32.6405 38.4776 31.6775 30.707 31.6133 27.3424C32.6405 31.1999 37.7336 39.1505 40.1517 42.6437C40.1517 44.3796 39.3171 46.8098 35.9788 42.6437Z" fill="#477639"/>
</g>
<ellipse cx="0.654204" cy="0.900175" rx="0.654204" ry="0.900175" transform="matrix(0.865236 -0.501366 0.500288 0.865859 29.2373 38.2852)" fill="#477639"/>
<ellipse cx="0.375054" cy="0.515646" rx="0.375054" ry="0.515646" transform="matrix(0.680927 -0.732351 0.731374 0.681976 31.0352 38.5643)" fill="#477639"/>
<ellipse cx="0.484548" cy="0.777867" rx="0.484548" ry="0.777867" transform="matrix(0.817821 -0.575473 0.574369 0.818597 30.7783 40.1156)" fill="#477639"/>
<ellipse cx="0.504905" cy="0.736523" rx="0.504905" ry="0.736523" transform="matrix(0.610922 -0.791691 0.790841 0.612022 29.1094 40.486)" fill="#477639"/>
<path d="M27.1361 21.568H19.2471C19.2471 22.7341 21.2995 23.7336 23.8009 23.7336C25.802 23.7336 26.8582 22.2899 27.1361 21.568Z" fill="#2B4528"/>
<path d="M20.6396 22.4666V21.568H21.9236V22.5228C21.9236 22.8608 21.6774 23.3364 21.34 23.3667C20.9549 23.4013 20.6396 22.8046 20.6396 22.4666Z" fill="white"/>
<path d="M25.0049 22.4668V21.5681H26.2889V22.5229C26.2889 22.8609 26.0426 23.3365 25.7052 23.3668C25.3201 23.4014 25.0049 22.8047 25.0049 22.4668Z" fill="white"/>
</g>
<ellipse cx="8.1291" cy="11.6777" rx="1.33418" ry="1.34385" fill="#FFBC57"/>
<circle cx="11.5235" cy="8.99143" r="0.752837" transform="rotate(10.8484 11.5235 8.99143)" fill="#FFBC57"/>
<ellipse cx="6.92139" cy="6.91135" rx="1.2085" ry="1.19883" fill="#FFBC57"/>
<defs>
<filter id="filter0_d_348_2401" x="0.7625" y="0.7625" width="43.0033" height="43.0031" filterUnits="userSpaceOnUse" color-interpolation-filters="sRGB">
<feFlood flood-opacity="0" result="BackgroundImageFix"/>
<feColorMatrix in="SourceAlpha" type="matrix" values="0 0 0 0 0 0 0 0 0 0 0 0 0 0 0 0 0 0 127 0" result="hardAlpha"/>
<feOffset/>
<feGaussianBlur stdDeviation="0.61875"/>
<feComposite in2="hardAlpha" operator="out"/>
<feColorMatrix type="matrix" values="0 0 0 0 0 0 0 0 0 0 0 0 0 0 0 0 0 0 0.25 0"/>
<feBlend mode="normal" in2="BackgroundImageFix" result="effect1_dropShadow_348_2401"/>
<feBlend mode="normal" in="SourceGraphic" in2="effect1_dropShadow_348_2401" result="shape"/>
</filter>
<linearGradient id="paint0_linear_348_2401" x1="1.50391" y1="33.7716" x2="42.206" y2="33.7716" gradientUnits="userSpaceOnUse">
<stop stop-color="#91A659"/>
<stop offset="1" stop-color="#4E773F"/>
</linearGradient>
<linearGradient id="paint1_linear_348_2401" x1="1.50391" y1="33.7716" x2="42.206" y2="33.7716" gradientUnits="userSpaceOnUse">
<stop stop-color="#91A659"/>
<stop offset="1" stop-color="#4E773F"/>
</linearGradient>
</defs>
</svg>
