<svg width="50" height="50" viewBox="0 0 50 50" fill="none" xmlns="http://www.w3.org/2000/svg">
<circle cx="25" cy="25" r="25" fill="#4C753F"/>
<path d="M35.0832 15.4118C34.9387 15.267 34.767 15.1521 34.578 15.0737C34.3889 14.9953 34.1863 14.9549 33.9817 14.9549C33.777 14.9549 33.5744 14.9953 33.3854 15.0737C33.1964 15.1521 33.0247 15.267 32.8801 15.4118L25.2395 23.0368L17.5989 15.3962C17.4542 15.2516 17.2825 15.1368 17.0935 15.0585C16.9045 14.9802 16.7019 14.9399 16.4973 14.9399C16.2927 14.9399 16.0901 14.9802 15.9011 15.0585C15.7121 15.1368 15.5404 15.2516 15.3957 15.3962C15.2511 15.5409 15.1363 15.7126 15.058 15.9016C14.9797 16.0906 14.9395 16.2932 14.9395 16.4978C14.9395 16.7024 14.9797 16.9049 15.058 17.0939C15.1363 17.283 15.2511 17.4547 15.3957 17.5993L23.0364 25.24L15.3957 32.8806C15.2511 33.0253 15.1363 33.197 15.058 33.386C14.9797 33.575 14.9395 33.7776 14.9395 33.9822C14.9395 34.1867 14.9797 34.3893 15.058 34.5783C15.1363 34.7673 15.2511 34.9391 15.3957 35.0837C15.5404 35.2284 15.7121 35.3431 15.9011 35.4214C16.0901 35.4997 16.2927 35.54 16.4973 35.54C16.7019 35.54 16.9045 35.4997 17.0935 35.4214C17.2825 35.3431 17.4542 35.2284 17.5989 35.0837L25.2395 27.4431L32.8801 35.0837C33.0248 35.2284 33.1965 35.3431 33.3855 35.4214C33.5745 35.4997 33.7771 35.54 33.9817 35.54C34.1862 35.54 34.3888 35.4997 34.5778 35.4214C34.7668 35.3431 34.9386 35.2284 35.0832 35.0837C35.2279 34.9391 35.3426 34.7673 35.4209 34.5783C35.4992 34.3893 35.5395 34.1867 35.5395 33.9822C35.5395 33.7776 35.4992 33.575 35.4209 33.386C35.3426 33.197 35.2279 33.0253 35.0832 32.8806L27.4426 25.24L35.0832 17.5993C35.677 17.0056 35.677 16.0056 35.0832 15.4118Z" fill="white"/>
</svg>
