<svg width="310" height="258" viewBox="0 0 310 258" fill="none" xmlns="http://www.w3.org/2000/svg">
<g filter="url(#filter0_d_1895_2)">
<circle cx="115.624" cy="142.837" r="108.075" fill="#FFF4E4"/>
</g>
<mask id="mask0_1895_2" style="mask-type:alpha" maskUnits="userSpaceOnUse" x="7" y="34" width="217" height="217">
<circle cx="115.624" cy="142.837" r="108.075" fill="#FFF4E4"/>
</mask>
<g mask="url(#mask0_1895_2)">
<path d="M110.021 124.318V96.5443H101.461V124.318H110.021Z" fill="#4E773F"/>
<path d="M138.44 124.318H129.88L134.279 95.1727H142.891L138.44 124.318Z" fill="#4E773F"/>
<path d="M86.5658 66.6727C88.6241 64.3069 90.2694 63.3655 93.0851 61.9891C97.2017 59.9767 99.9934 59.2845 104.565 59.5763C108.932 59.8549 111.635 60.5756 115.194 63.1245C118.895 65.7748 120.72 68.1629 122.139 72.4918C123.763 77.4491 122.564 82.8526 121.43 85.8331C119.964 89.6873 117.838 91.385 114.486 93.7811C108.935 97.7491 104.178 99.0318 97.4786 97.7551C92.2451 96.7579 87.5579 92.7876 85.5737 91.0845C83.5896 89.3813 81.5051 86.0542 81.6054 82.2849C81.6476 80.6983 82.1723 78.169 82.1723 78.169C82.1723 78.169 82.4974 74.7659 83.1644 72.6337C83.9647 70.0751 84.807 68.6943 86.5658 66.6727Z" fill="#91A659"/>
<path d="M98.7536 63.8341C101.248 63.0393 104.612 63.5029 105.982 63.8341C107.399 64.2126 110.305 64.5397 112.501 66.105C115.227 68.0483 116.611 71.2144 117.32 73.2014C118.028 75.1884 117.887 78.3109 117.32 81.2914C116.753 84.2719 114.769 88.104 109.1 90.6587C103.431 93.2134 98.4702 91.6522 93.935 89.6652C89.3997 87.6782 87.8408 83.8461 87.4156 82.2849C86.9904 80.7237 87.2739 79.4463 87.4156 76.8916C87.5573 74.3369 88.2659 71.9241 90.2501 69.2274C92.2343 66.5308 95.6357 64.8276 98.7536 63.8341Z" fill="white"/>
<path d="M111.509 72.9176C110.942 72.577 109.1 72.0187 108.249 71.7822C104.706 71.4983 102.297 72.9176 100.455 74.6208C98.6121 76.3239 97.6867 80.0434 99.179 82.9946C100.284 85.1804 101.811 86.0757 104.139 86.8267C106.247 87.5062 107.399 87.3944 109.808 86.8267C112.218 86.2589 114.344 82.5688 114.627 81.5753C114.911 80.5818 115.479 78.1077 114.627 76.182C113.914 74.5691 112.218 73.3434 111.509 72.9176Z" fill="#000001"/>
<mask id="mask1_1895_2" style="mask-type:alpha" maskUnits="userSpaceOnUse" x="98" y="71" width="18" height="17">
<path d="M111.51 72.9176C110.943 72.577 109.101 72.0187 108.25 71.7822C104.707 71.4983 102.298 72.9176 100.455 74.6208C98.6129 76.3239 97.6874 80.0434 99.1798 82.9946C100.285 85.1804 101.811 86.0757 104.14 86.8267C106.247 87.5062 107.4 87.3944 109.809 86.8267C112.218 86.2589 114.344 82.5688 114.628 81.5753C114.911 80.5818 115.48 78.1077 114.628 76.182C113.914 74.5691 112.218 73.3434 111.51 72.9176Z" fill="#000001"/>
</mask>
<g mask="url(#mask1_1895_2)">
<path d="M105.841 74.4791C105.584 73.5727 104.94 72.6175 104.562 72.1444C104.42 71.9611 102.782 72.6035 101.731 73.2017C99.2561 74.6105 98.1819 76.9616 98.3258 79.8086C98.3686 80.6553 98.4675 81.6536 98.751 81.9375C99.0344 82.2213 100.667 82.0305 101.731 81.7174C103.76 81.1201 104.983 80.0201 105.699 78.0273C106.168 76.7224 106.219 75.8131 105.841 74.4791Z" fill="#666666"/>
</g>
<path d="M161.108 67.3583C159.049 64.9924 157.404 64.0511 154.588 62.6746C150.472 60.6623 147.68 59.9701 143.109 60.2618C138.742 60.5405 136.038 61.2611 132.479 63.81C128.779 66.4603 126.954 68.8484 125.535 73.1773C123.91 78.1347 125.11 83.5382 126.243 86.5187C127.71 90.3728 129.836 92.0706 133.188 94.4667C138.739 98.4346 143.495 99.7173 150.195 98.4407C155.428 97.4435 160.116 93.4732 162.1 91.77C164.084 90.0669 166.168 86.7397 166.068 82.9704C166.026 81.3838 165.501 78.8545 165.501 78.8545C165.501 78.8545 165.176 75.4514 164.509 73.3193C163.709 70.7607 162.867 69.3798 161.108 67.3583Z" fill="#91A659"/>
<path d="M148.92 64.5197C146.426 63.7249 143.062 64.1885 141.692 64.5197C140.275 64.8981 137.369 65.2252 135.173 66.7905C132.446 68.7338 131.063 71.9 130.354 73.887C129.646 75.874 129.787 78.9964 130.354 81.9769C130.921 84.9574 132.905 88.7895 138.574 91.3442C144.243 93.8989 149.204 92.3377 153.739 90.3507C158.274 88.3637 159.833 84.5316 160.258 82.9704C160.683 81.4092 160.4 80.1318 160.258 77.5771C160.117 75.0224 159.408 72.6096 157.424 69.913C155.44 67.2163 152.038 65.5132 148.92 64.5197Z" fill="white"/>
<path d="M136.164 73.6032C136.731 73.2625 138.573 72.7043 139.424 72.4677C142.967 72.1839 145.376 73.6032 147.219 75.3063C149.061 77.0095 149.986 80.729 148.494 83.6801C147.389 85.8659 145.862 86.7612 143.534 87.5122C141.426 88.1918 140.274 88.0799 137.865 87.5122C135.455 86.9445 133.329 83.2543 133.046 82.2608C132.763 81.2673 132.194 78.7932 133.046 76.8675C133.76 75.2546 135.455 74.029 136.164 73.6032Z" fill="#000001"/>
<mask id="mask2_1895_2" style="mask-type:alpha" maskUnits="userSpaceOnUse" x="132" y="72" width="18" height="16">
<path d="M136.164 73.6032C136.731 73.2625 138.574 72.7043 139.424 72.4677C142.967 72.1839 145.377 73.6032 147.219 75.3063C149.061 77.0095 149.987 80.729 148.495 83.6801C147.389 85.8659 145.863 86.7612 143.534 87.5122C141.427 88.1918 140.274 88.0799 137.865 87.5122C135.456 86.9445 133.33 83.2543 133.047 82.2608C132.763 81.2673 132.195 78.7932 133.047 76.8675C133.76 75.2546 135.456 74.029 136.164 73.6032Z" fill="#000001"/>
</mask>
<g mask="url(#mask2_1895_2)">
<path d="M141.834 75.1646C142.091 74.2582 142.735 73.303 143.113 72.8299C143.255 72.6466 144.893 73.289 145.944 73.8873C148.419 75.296 149.493 77.6472 149.349 80.4941C149.306 81.3409 149.208 82.3392 148.924 82.623C148.641 82.9069 147.008 82.7161 145.944 82.403C143.915 81.8056 142.692 80.7056 141.976 78.7128C141.507 77.408 141.456 76.4986 141.834 75.1646Z" fill="#666666"/>
</g>
<path d="M152.136 124.318H87.7656C50.2392 158.607 42.912 223.069 43.9392 250.5H205.549C183.91 231.299 160.924 158.378 152.136 124.318Z" fill="url(#paint0_linear_1895_2)"/>
<mask id="mask3_1895_2" style="mask-type:alpha" maskUnits="userSpaceOnUse" x="43" y="124" width="163" height="127">
<path d="M152.136 124.318H87.7656C50.2392 158.607 42.912 223.069 43.9392 250.5H205.549C183.91 231.299 160.924 158.378 152.136 124.318Z" fill="url(#paint1_linear_1895_2)"/>
</mask>
<g mask="url(#mask3_1895_2)">
<path d="M188.772 251.529C170.967 229.31 165.831 187.866 165.489 169.922C170.967 190.495 198.13 232.899 211.027 251.529C211.027 260.787 206.576 273.748 188.772 251.529Z" fill="#477639"/>
</g>
<ellipse cx="3.48909" cy="4.80093" rx="3.48909" ry="4.80093" transform="matrix(0.865236 -0.501366 0.500288 0.865859 152.82 228.282)" fill="#477639"/>
<ellipse cx="2.00029" cy="2.75011" rx="2.00029" ry="2.75011" transform="matrix(0.680927 -0.732351 0.731374 0.681976 162.407 229.771)" fill="#477639"/>
<ellipse cx="2.58426" cy="4.14862" rx="2.58426" ry="4.14862" transform="matrix(0.817821 -0.575473 0.574369 0.818597 161.038 238.045)" fill="#477639"/>
<ellipse cx="2.69283" cy="3.92812" rx="2.69283" ry="3.92812" transform="matrix(0.610922 -0.791691 0.790841 0.612022 152.136 240.02)" fill="#477639"/>
<path d="M141.611 139.125H99.5365C99.5365 145.344 110.483 150.675 123.824 150.675C134.496 150.675 140.129 142.975 141.611 139.125Z" fill="#2B4528"/>
<path d="M106.962 143.918V139.125H113.809V144.218C113.809 146.02 112.496 148.557 110.697 148.718C108.643 148.903 106.961 145.721 106.962 143.918Z" fill="white"/>
<path d="M130.245 143.918V139.125H137.092V144.218C137.092 146.02 135.779 148.557 133.98 148.718C131.926 148.903 130.244 145.721 130.245 143.918Z" fill="white"/>
</g>
<ellipse cx="40.2395" cy="86.3764" rx="7.11562" ry="7.16719" fill="#FFBC57"/>
<circle cx="58.345" cy="72.0489" r="4.01513" transform="rotate(10.8484 58.345 72.0489)" fill="#FFBC57"/>
<ellipse cx="33.7943" cy="60.9565" rx="6.44531" ry="6.39375" fill="#FFBC57"/>
<g filter="url(#filter1_d_1895_2)">
<path d="M276.215 8.36255H204.286C190.425 8.36255 179.149 19.6389 179.149 33.4993V107.363C179.149 109.373 180.19 111.24 181.9 112.297C182.832 112.873 183.889 113.163 184.95 113.163C185.837 113.163 186.726 112.96 187.544 112.551L209.522 101.562H276.215C290.076 101.562 301.352 90.2854 301.352 76.4251V33.4993C301.352 19.6389 290.076 8.36255 276.215 8.36255ZM271.962 72.5579H208.54C205.336 72.5579 202.739 69.9607 202.739 66.7571C202.739 63.5535 205.336 60.9563 208.54 60.9563H271.962C275.165 60.9563 277.762 63.5535 277.762 66.7571C277.762 69.9607 275.165 72.5579 271.962 72.5579ZM271.962 49.3547H208.54C205.336 49.3547 202.739 46.7575 202.739 43.554C202.739 40.3504 205.336 37.7532 208.54 37.7532H271.962C275.165 37.7532 277.762 40.3504 277.762 43.554C277.762 46.7575 275.165 49.3547 271.962 49.3547Z" fill="white"/>
</g>
<rect x="181.727" y="20.7375" width="113.85" height="74.25" rx="37.125" fill="white"/>
<path d="M224.08 43.7376L219.976 43.7376L213.112 33.3455L213.112 43.7376L209.008 43.7376L209.008 26.8895L213.112 26.8895L219.976 37.3296L219.976 26.8895L224.08 26.8895L224.08 43.7376ZM239.679 36.8256C239.679 37.2096 239.655 37.6096 239.607 38.0256L230.319 38.0256C230.383 38.8576 230.647 39.4976 231.111 39.9456C231.591 40.3776 232.175 40.5936 232.863 40.5936C233.887 40.5936 234.599 40.1616 234.999 39.2976L239.367 39.2976C239.143 40.1776 238.735 40.9696 238.143 41.6736C237.567 42.3776 236.839 42.9296 235.959 43.3296C235.079 43.7296 234.095 43.9296 233.007 43.9296C231.695 43.9296 230.527 43.6496 229.503 43.0896C228.479 42.5296 227.679 41.7296 227.103 40.6896C226.527 39.6496 226.239 38.4336 226.239 37.0416C226.239 35.6496 226.519 34.4335 227.079 33.3935C227.655 32.3535 228.455 31.5535 229.479 30.9935C230.503 30.4335 231.679 30.1535 233.007 30.1535C234.303 30.1535 235.455 30.4255 236.463 30.9696C237.471 31.5135 238.255 32.2895 238.815 33.2975C239.391 34.3056 239.679 35.4816 239.679 36.8256ZM235.479 35.7456C235.479 35.0416 235.239 34.4816 234.759 34.0655C234.279 33.6495 233.679 33.4415 232.959 33.4415C232.271 33.4415 231.687 33.6416 231.207 34.0416C230.743 34.4416 230.455 35.0096 230.343 35.7456L235.479 35.7456ZM254.468 36.8256C254.468 37.2096 254.444 37.6096 254.396 38.0256L245.108 38.0256C245.172 38.8576 245.436 39.4976 245.9 39.9456C246.38 40.3776 246.964 40.5936 247.652 40.5936C248.676 40.5936 249.388 40.1616 249.788 39.2976L254.156 39.2976C253.932 40.1776 253.524 40.9696 252.932 41.6736C252.356 42.3776 251.628 42.9296 250.748 43.3296C249.868 43.7296 248.884 43.9296 247.796 43.9296C246.484 43.9296 245.316 43.6496 244.292 43.0896C243.268 42.5296 242.468 41.7296 241.892 40.6896C241.316 39.6496 241.028 38.4336 241.028 37.0416C241.028 35.6496 241.308 34.4335 241.868 33.3935C242.444 32.3535 243.244 31.5535 244.268 30.9935C245.292 30.4335 246.468 30.1535 247.796 30.1535C249.092 30.1535 250.244 30.4255 251.252 30.9696C252.26 31.5135 253.044 32.2895 253.604 33.2975C254.18 34.3056 254.468 35.4816 254.468 36.8256ZM250.268 35.7456C250.268 35.0416 250.028 34.4816 249.548 34.0655C249.068 33.6495 248.468 33.4416 247.748 33.4416C247.06 33.4416 246.476 33.6416 245.996 34.0416C245.532 34.4416 245.244 35.0096 245.132 35.7456L250.268 35.7456ZM255.817 37.0176C255.817 35.6416 256.073 34.4336 256.585 33.3935C257.113 32.3535 257.825 31.5535 258.721 30.9935C259.617 30.4335 260.617 30.1535 261.721 30.1535C262.601 30.1535 263.401 30.3375 264.121 30.7055C264.857 31.0735 265.433 31.5695 265.849 32.1935L265.849 25.9775L269.953 25.9775L269.953 43.7376L265.849 43.7376L265.849 41.8176C265.465 42.4576 264.913 42.9696 264.193 43.3536C263.489 43.7376 262.665 43.9296 261.721 43.9296C260.617 43.9296 259.617 43.6496 258.721 43.0896C257.825 42.5136 257.113 41.7056 256.585 40.6656C256.073 39.6096 255.817 38.3936 255.817 37.0176ZM265.849 37.0416C265.849 36.0176 265.561 35.2096 264.985 34.6176C264.425 34.0255 263.737 33.7295 262.921 33.7295C262.105 33.7295 261.409 34.0255 260.833 34.6176C260.273 35.1936 259.993 35.9936 259.993 37.0176C259.993 38.0416 260.273 38.8576 260.833 39.4656C261.409 40.0576 262.105 40.3536 262.921 40.3536C263.737 40.3536 264.425 40.0576 264.985 39.4656C265.561 38.8736 265.849 38.0656 265.849 37.0416ZM221.245 63.8896L221.245 80.7376L217.141 80.7376L217.141 73.8016L210.757 73.8016L210.757 80.7376L206.653 80.7376L206.653 63.8896L210.757 63.8896L210.757 70.4896L217.141 70.4896L217.141 63.8896L221.245 63.8896ZM236.831 73.8256C236.831 74.2096 236.807 74.6096 236.759 75.0256L227.471 75.0256C227.535 75.8576 227.799 76.4976 228.263 76.9456C228.743 77.3776 229.327 77.5936 230.015 77.5936C231.039 77.5936 231.751 77.1616 232.151 76.2976L236.519 76.2976C236.295 77.1776 235.887 77.9696 235.295 78.6736C234.719 79.3776 233.991 79.9296 233.111 80.3296C232.231 80.7296 231.247 80.9296 230.159 80.9296C228.847 80.9296 227.679 80.6496 226.655 80.0896C225.631 79.5296 224.831 78.7296 224.255 77.6896C223.679 76.6496 223.391 75.4336 223.391 74.0416C223.391 72.6496 223.671 71.4336 224.231 70.3936C224.807 69.3536 225.607 68.5536 226.631 67.9936C227.655 67.4336 228.831 67.1536 230.159 67.1536C231.455 67.1536 232.607 67.4256 233.615 67.9696C234.623 68.5136 235.407 69.2896 235.967 70.2976C236.543 71.3056 236.831 72.4816 236.831 73.8256ZM232.631 72.7456C232.631 72.0416 232.391 71.4816 231.911 71.0656C231.431 70.6496 230.831 70.4416 230.111 70.4416C229.423 70.4416 228.839 70.6416 228.359 71.0416C227.895 71.4416 227.607 72.0096 227.495 72.7456L232.631 72.7456ZM243.1 62.9776L243.1 80.7376L238.996 80.7376L238.996 62.9776L243.1 62.9776ZM250.179 69.2416C250.579 68.6176 251.131 68.1136 251.835 67.7296C252.539 67.3456 253.363 67.1536 254.307 67.1536C255.411 67.1536 256.411 67.4336 257.307 67.9936C258.203 68.5536 258.907 69.3536 259.419 70.3936C259.947 71.4336 260.211 72.6416 260.211 74.0176C260.211 75.3936 259.947 76.6096 259.419 77.6656C258.907 78.7056 258.203 79.5136 257.307 80.0896C256.411 80.6496 255.411 80.9296 254.307 80.9296C253.379 80.9296 252.555 80.7376 251.835 80.3536C251.131 79.9696 250.579 79.4736 250.179 78.8656L250.179 87.1216L246.075 87.1216L246.075 67.3456L250.179 67.3456L250.179 69.2416ZM256.035 74.0176C256.035 72.9936 255.747 72.1936 255.171 71.6176C254.611 71.0256 253.915 70.7296 253.083 70.7296C252.267 70.7296 251.571 71.0256 250.995 71.6176C250.435 72.2096 250.155 73.0176 250.155 74.0416C250.155 75.0656 250.435 75.8736 250.995 76.4656C251.571 77.0576 252.267 77.3536 253.083 77.3536C253.899 77.3536 254.595 77.0576 255.171 76.4656C255.747 75.8576 256.035 75.0416 256.035 74.0176ZM267.284 62.9536C268.996 62.9536 270.364 63.4016 271.388 64.2976C272.428 65.1936 272.948 66.4576 272.948 68.0896C272.948 69.5936 272.452 70.7696 271.46 71.6176C270.484 72.4496 269.188 72.8736 267.572 72.8896L267.452 74.6896L263.852 74.6896L263.732 70.2256L265.172 70.2256C266.404 70.2256 267.34 70.0736 267.98 69.7696C268.636 69.4656 268.964 68.9136 268.964 68.1136C268.964 67.5536 268.812 67.1136 268.508 66.7936C268.204 66.4736 267.78 66.3136 267.236 66.3136C266.66 66.3136 266.212 66.4816 265.892 66.8176C265.572 67.1376 265.412 67.5776 265.412 68.1376L261.548 68.1376C261.516 67.1616 261.716 66.2816 262.148 65.4976C262.596 64.7136 263.252 64.0976 264.116 63.6496C264.996 63.1856 266.052 62.9536 267.284 62.9536ZM265.7 80.9296C264.98 80.9296 264.388 80.7216 263.924 80.3056C263.476 79.8736 263.252 79.3456 263.252 78.7216C263.252 78.0816 263.476 77.5456 263.924 77.1136C264.388 76.6816 264.98 76.4656 265.7 76.4656C266.404 76.4656 266.98 76.6816 267.428 77.1136C267.892 77.5456 268.124 78.0816 268.124 78.7216C268.124 79.3456 267.892 79.8736 267.428 80.3056C266.98 80.7216 266.404 80.9296 265.7 80.9296Z" fill="url(#paint2_linear_1895_2)"/>
<defs>
<filter id="filter0_d_1895_2" x="0.94895" y="28.1625" width="229.35" height="229.35" filterUnits="userSpaceOnUse" color-interpolation-filters="sRGB">
<feFlood flood-opacity="0" result="BackgroundImageFix"/>
<feColorMatrix in="SourceAlpha" type="matrix" values="0 0 0 0 0 0 0 0 0 0 0 0 0 0 0 0 0 0 127 0" result="hardAlpha"/>
<feOffset/>
<feGaussianBlur stdDeviation="3.3"/>
<feComposite in2="hardAlpha" operator="out"/>
<feColorMatrix type="matrix" values="0 0 0 0 0 0 0 0 0 0 0 0 0 0 0 0 0 0 0.25 0"/>
<feBlend mode="normal" in2="BackgroundImageFix" result="effect1_dropShadow_1895_2"/>
<feBlend mode="normal" in="SourceGraphic" in2="effect1_dropShadow_1895_2" result="shape"/>
</filter>
<filter id="filter1_d_1895_2" x="170.899" y="0.112549" width="138.703" height="121.301" filterUnits="userSpaceOnUse" color-interpolation-filters="sRGB">
<feFlood flood-opacity="0" result="BackgroundImageFix"/>
<feColorMatrix in="SourceAlpha" type="matrix" values="0 0 0 0 0 0 0 0 0 0 0 0 0 0 0 0 0 0 127 0" result="hardAlpha"/>
<feOffset/>
<feGaussianBlur stdDeviation="4.125"/>
<feComposite in2="hardAlpha" operator="out"/>
<feColorMatrix type="matrix" values="0 0 0 0 0 0 0 0 0 0 0 0 0 0 0 0 0 0 0.25 0"/>
<feBlend mode="normal" in2="BackgroundImageFix" result="effect1_dropShadow_1895_2"/>
<feBlend mode="normal" in="SourceGraphic" in2="effect1_dropShadow_1895_2" result="shape"/>
</filter>
<linearGradient id="paint0_linear_1895_2" x1="4.90632" y1="204.211" x2="221.984" y2="204.211" gradientUnits="userSpaceOnUse">
<stop stop-color="#91A659"/>
<stop offset="1" stop-color="#4E773F"/>
</linearGradient>
<linearGradient id="paint1_linear_1895_2" x1="4.90632" y1="204.211" x2="221.984" y2="204.211" gradientUnits="userSpaceOnUse">
<stop stop-color="#91A659"/>
<stop offset="1" stop-color="#4E773F"/>
</linearGradient>
<linearGradient id="paint2_linear_1895_2" x1="160.023" y1="62.5256" x2="304.003" y2="62.5256" gradientUnits="userSpaceOnUse">
<stop stop-color="#91A659"/>
<stop offset="1" stop-color="#4E773F"/>
</linearGradient>
</defs>
</svg>
