<svg width="156" height="130" viewBox="0 0 156 130" fill="none" xmlns="http://www.w3.org/2000/svg">
<g filter="url(#filter0_d_348_1835)">
<circle cx="58.0375" cy="72.2374" r="54.0375" fill="#FFF4E4"/>
</g>
<mask id="mask0_348_1835" style="mask-type:alpha" maskUnits="userSpaceOnUse" x="4" y="18" width="109" height="109">
<circle cx="58.0375" cy="72.2374" r="54.0375" fill="#FFF4E4"/>
</mask>
<g mask="url(#mask0_348_1835)">
<path d="M55.236 62.9776V49.0907H50.9561V62.9776H55.236Z" fill="#4E773F"/>
<path d="M69.4453 62.9776H65.1654L67.3651 48.405H71.6709L69.4453 62.9776Z" fill="#4E773F"/>
<path d="M43.5083 34.1551C44.5375 32.9722 45.3601 32.5015 46.768 31.8133C48.8262 30.8071 50.2221 30.461 52.5078 30.6069C54.6912 30.7462 56.043 31.1065 57.8225 32.381C59.6729 33.7061 60.5854 34.9002 61.2948 37.0646C62.1071 39.5433 61.5074 42.245 60.9405 43.7353C60.2074 45.6624 59.1443 46.5112 57.4682 47.7093C54.6927 49.6933 52.3146 50.3346 48.9647 49.6963C46.3479 49.1977 44.0043 47.2125 43.0123 46.361C42.0202 45.5094 40.978 43.8458 41.0281 41.9612C41.0492 41.1679 41.3116 39.9032 41.3116 39.9032C41.3116 39.9032 41.4741 38.2017 41.8076 37.1356C42.2078 35.8563 42.6289 35.1659 43.5083 34.1551Z" fill="#91A659"/>
<path d="M49.6026 32.7358C50.8498 32.3384 52.5316 32.5702 53.2166 32.7358C53.9252 32.925 55.3782 33.0886 56.4762 33.8712C57.8395 34.8429 58.5313 36.4259 58.8856 37.4194C59.2399 38.4129 59.169 39.9742 58.8856 41.4644C58.6021 42.9547 57.61 44.8707 54.7755 46.1481C51.941 47.4254 49.4608 46.6448 47.1932 45.6513C44.9256 44.6578 44.1462 42.7418 43.9336 41.9612C43.721 41.1806 43.8627 40.5419 43.9336 39.2645C44.0044 37.9872 44.3587 36.7808 45.3508 35.4324C46.3429 34.0841 48.0436 33.2325 49.6026 32.7358Z" fill="white"/>
<path d="M55.9798 37.2775C55.6964 37.1072 54.7752 36.8281 54.35 36.7098C52.5784 36.5679 51.3738 37.2775 50.4526 38.1291C49.5313 38.9807 49.0686 40.8404 49.8148 42.316C50.3674 43.4089 51.1306 43.8566 52.295 44.2321C53.3486 44.5718 53.9248 44.5159 55.1295 44.2321C56.3342 43.9482 57.3971 42.1031 57.5388 41.6064C57.6805 41.1096 57.9648 39.8726 57.5388 38.9097C57.182 38.1033 56.3342 37.4904 55.9798 37.2775Z" fill="#000001"/>
<mask id="mask1_348_1835" style="mask-type:alpha" maskUnits="userSpaceOnUse" x="49" y="36" width="9" height="9">
<path d="M55.9798 37.2775C55.6964 37.1072 54.7752 36.8281 54.35 36.7098C52.5784 36.5679 51.3738 37.2775 50.4526 38.1291C49.5313 38.9807 49.0686 40.8404 49.8148 42.316C50.3674 43.4089 51.1306 43.8566 52.295 44.2321C53.3486 44.5718 53.9248 44.5159 55.1295 44.2321C56.3342 43.9482 57.3971 42.1031 57.5388 41.6064C57.6805 41.1096 57.9648 39.8726 57.5388 38.9097C57.182 38.1033 56.3342 37.4904 55.9798 37.2775Z" fill="#000001"/>
</mask>
<g mask="url(#mask1_348_1835)">
<path d="M53.1457 38.0581C53.0171 37.6049 52.6951 37.1273 52.5061 36.8908C52.4353 36.7991 51.6161 37.1203 51.0906 37.4195C49.8533 38.1238 49.3162 39.2994 49.3882 40.7229C49.4096 41.1463 49.4591 41.6454 49.6008 41.7873C49.7425 41.9293 50.559 41.8339 51.0906 41.6773C52.1051 41.3786 52.7168 40.8286 53.0748 39.8323C53.3092 39.1798 53.3348 38.7251 53.1457 38.0581Z" fill="#666666"/>
</g>
<path d="M80.7798 34.498C79.7506 33.3151 78.928 32.8444 77.5201 32.1562C75.4618 31.15 74.066 30.8039 71.7802 30.9498C69.5969 31.0891 68.2451 31.4494 66.4656 32.7239C64.6152 34.049 63.7027 35.2431 62.9933 37.4075C62.1809 39.8862 62.7807 42.5879 63.3476 44.0782C64.0807 46.0053 65.1438 46.8541 66.8199 48.0522C69.5954 50.0362 71.9734 50.6775 75.3234 50.0392C77.9401 49.5406 80.2838 47.5554 81.2758 46.7039C82.2679 45.8523 83.3101 44.1887 83.26 42.3041C83.2389 41.5108 82.9765 40.2461 82.9765 40.2461C82.9765 40.2461 82.814 38.5446 82.4805 37.4785C82.0803 36.1992 81.6592 35.5087 80.7798 34.498Z" fill="#91A659"/>
<path d="M74.6855 33.0787C73.4383 32.6813 71.7565 32.9131 71.0715 33.0787C70.3629 33.2679 68.9099 33.4315 67.8118 34.2141C66.4486 35.1858 65.7568 36.7688 65.4025 37.7623C65.0482 38.7558 65.1191 40.3171 65.4025 41.8073C65.686 43.2976 66.678 45.2136 69.5125 46.491C72.347 47.7683 74.8272 46.9877 77.0948 45.9942C79.3624 45.0007 80.1419 43.0847 80.3545 42.3041C80.5671 41.5234 80.4254 40.8848 80.3545 39.6074C80.2837 38.33 79.9293 37.1237 78.9373 35.7753C77.9452 34.427 76.2445 33.5754 74.6855 33.0787Z" fill="white"/>
<path d="M68.3082 37.6204C68.5917 37.4501 69.5129 37.171 69.9381 37.0527C71.7097 36.9108 72.9143 37.6204 73.8355 38.472C74.7567 39.3236 75.2195 41.1833 74.4733 42.6589C73.9206 43.7518 73.1575 44.1995 71.9931 44.575C70.9394 44.9147 70.3633 44.8588 69.1586 44.575C67.9539 44.2911 66.891 42.446 66.7493 41.9493C66.6075 41.4525 66.3233 40.2155 66.7493 39.2526C67.106 38.4462 67.9539 37.8333 68.3082 37.6204Z" fill="#000001"/>
<mask id="mask2_348_1835" style="mask-type:alpha" maskUnits="userSpaceOnUse" x="66" y="37" width="9" height="8">
<path d="M68.3082 37.6204C68.5917 37.4501 69.5129 37.171 69.9381 37.0527C71.7097 36.9108 72.9143 37.6204 73.8355 38.472C74.7567 39.3236 75.2195 41.1833 74.4733 42.6589C73.9206 43.7518 73.1575 44.1995 71.9931 44.575C70.9394 44.9147 70.3633 44.8588 69.1586 44.575C67.9539 44.2911 66.891 42.446 66.7493 41.9493C66.6075 41.4525 66.3233 40.2155 66.7493 39.2526C67.106 38.4462 67.9539 37.8333 68.3082 37.6204Z" fill="#000001"/>
</mask>
<g mask="url(#mask2_348_1835)">
<path d="M71.1434 38.401C71.2719 37.9478 71.5939 37.4702 71.7829 37.2337C71.8538 37.142 72.673 37.4632 73.1984 37.7624C74.4357 38.4667 74.9728 39.6423 74.9009 41.0658C74.8795 41.4892 74.83 41.9883 74.6883 42.1302C74.5466 42.2722 73.7301 42.1768 73.1984 42.0202C72.184 41.7215 71.5722 41.1715 71.2143 40.1751C70.9799 39.5227 70.9542 39.068 71.1434 38.401Z" fill="#666666"/>
</g>
<path d="M76.2937 62.9777H44.1087C25.3455 80.122 21.6819 112.353 22.1955 126.069H103C92.1807 116.468 80.6877 80.0077 76.2937 62.9777Z" fill="url(#paint0_linear_348_1835)"/>
<mask id="mask3_348_1835" style="mask-type:alpha" maskUnits="userSpaceOnUse" x="22" y="62" width="81" height="65">
<path d="M76.2937 62.9777H44.1087C25.3455 80.122 21.6819 112.353 22.1955 126.069H103C92.1807 116.468 80.6877 80.0077 76.2937 62.9777Z" fill="url(#paint1_linear_348_1835)"/>
</mask>
<g mask="url(#mask3_348_1835)">
<path d="M94.6121 126.583C85.7099 115.473 83.1419 94.7517 82.9707 85.7795C85.7099 96.0661 99.2915 117.268 105.74 126.583C105.74 131.212 103.514 137.692 94.6121 126.583Z" fill="#477639"/>
</g>
<ellipse cx="1.74455" cy="2.40047" rx="1.74455" ry="2.40047" transform="matrix(0.865236 -0.501366 0.500288 0.865859 76.6357 114.96)" fill="#477639"/>
<ellipse cx="1.00014" cy="1.37506" rx="1.00014" ry="1.37506" transform="matrix(0.680927 -0.732351 0.731374 0.681976 81.4297 115.704)" fill="#477639"/>
<ellipse cx="1.29213" cy="2.07431" rx="1.29213" ry="2.07431" transform="matrix(0.817821 -0.575473 0.574369 0.818597 80.7451 119.841)" fill="#477639"/>
<ellipse cx="1.34641" cy="1.96406" rx="1.34641" ry="1.96406" transform="matrix(0.610922 -0.791691 0.790841 0.612022 76.2939 120.828)" fill="#477639"/>
<path d="M71.0316 70.3812H49.9941C49.9941 73.4908 55.4673 76.1562 62.1377 76.1562C67.4741 76.1562 70.2905 72.3062 71.0316 70.3812Z" fill="#2B4528"/>
<path d="M53.707 72.7776V70.3812H57.131V72.9274C57.131 73.8288 56.4743 75.097 55.5746 75.1778C54.5476 75.27 53.707 73.6789 53.707 72.7776Z" fill="white"/>
<path d="M65.3486 72.7776V70.3812H68.7726V72.9274C68.7726 73.8288 68.1159 75.097 67.2162 75.1778C66.1892 75.27 65.3486 73.6789 65.3486 72.7776Z" fill="white"/>
</g>
<ellipse cx="20.3449" cy="44.0071" rx="3.55781" ry="3.58359" fill="#FFBC57"/>
<circle cx="29.3976" cy="36.8433" r="2.00756" transform="rotate(10.8484 29.3976 36.8433)" fill="#FFBC57"/>
<ellipse cx="17.123" cy="31.2969" rx="3.22266" ry="3.19688" fill="#FFBC57"/>
<g filter="url(#filter1_d_348_1835)">
<path d="M138.333 5H102.368C95.438 5 89.7998 10.6382 89.7998 17.5684V54.5C89.7998 55.5051 90.3203 56.4386 91.1754 56.9673C91.6412 57.2552 92.17 57.4004 92.7004 57.4004C93.1436 57.4004 93.5881 57.2989 93.9974 57.0941L104.986 51.5996H138.333C145.263 51.5996 150.901 45.9614 150.901 39.0312V17.5684C150.901 10.6382 145.263 5 138.333 5ZM136.206 37.0977H104.495C102.893 37.0977 101.595 35.7991 101.595 34.1973C101.595 32.5955 102.893 31.2969 104.495 31.2969H136.206C137.808 31.2969 139.106 32.5955 139.106 34.1973C139.106 35.7991 137.808 37.0977 136.206 37.0977ZM136.206 25.4961H104.495C102.893 25.4961 101.595 24.1975 101.595 22.5957C101.595 20.9939 102.893 19.6953 104.495 19.6953H136.206C137.808 19.6953 139.106 20.9939 139.106 22.5957C139.106 24.1975 137.808 25.4961 136.206 25.4961Z" fill="white"/>
</g>
<rect x="91.0889" y="11.1875" width="56.925" height="37.125" rx="18.5625" fill="white"/>
<path d="M111.248 18.2175C111.584 18.289 111.853 18.4568 112.057 18.7208C112.26 18.9793 112.362 19.2763 112.362 19.6118C112.362 20.0958 112.191 20.4808 111.85 20.7668C111.515 21.0473 111.045 21.1875 110.44 21.1875L107.742 21.1875L107.742 15.396L110.349 15.396C110.937 15.396 111.397 15.5308 111.727 15.8003C112.062 16.0698 112.23 16.4355 112.23 16.8975C112.23 17.2385 112.139 17.5218 111.958 17.7473C111.782 17.9728 111.545 18.1295 111.248 18.2175ZM109.153 17.739L110.077 17.739C110.308 17.739 110.484 17.6895 110.605 17.5905C110.731 17.486 110.794 17.3348 110.794 17.1368C110.794 16.9388 110.731 16.7875 110.605 16.683C110.484 16.5785 110.308 16.5263 110.077 16.5263L109.153 16.5263L109.153 17.739ZM110.192 20.049C110.429 20.049 110.61 19.9968 110.737 19.8923C110.869 19.7823 110.935 19.6255 110.935 19.422C110.935 19.2185 110.866 19.059 110.728 18.9435C110.596 18.828 110.412 18.7703 110.176 18.7703L109.153 18.7703L109.153 20.049L110.192 20.049ZM117.726 16.584L117.726 21.1875L116.315 21.1875L116.315 20.5605C116.172 20.764 115.977 20.929 115.729 21.0555C115.487 21.1765 115.218 21.237 114.921 21.237C114.569 21.237 114.258 21.16 113.989 21.006C113.719 20.8465 113.51 20.6183 113.362 20.3213C113.213 20.0243 113.139 19.675 113.139 19.2735L113.139 16.584L114.541 16.584L114.541 19.0838C114.541 19.3918 114.621 19.631 114.781 19.8015C114.94 19.972 115.155 20.0573 115.424 20.0573C115.699 20.0573 115.916 19.972 116.076 19.8015C116.235 19.631 116.315 19.3918 116.315 19.0838L116.315 16.584L117.726 16.584ZM121.305 19.9913L121.305 21.1875L120.587 21.1875C120.076 21.1875 119.677 21.0638 119.391 20.8163C119.105 20.5633 118.962 20.1535 118.962 19.587L118.962 17.7555L118.401 17.7555L118.401 16.584L118.962 16.584L118.962 15.462L120.373 15.462L120.373 16.584L121.297 16.584L121.297 17.7555L120.373 17.7555L120.373 19.6035C120.373 19.741 120.406 19.84 120.472 19.9005C120.538 19.961 120.648 19.9913 120.802 19.9913L121.305 19.9913ZM126.636 16.584L126.636 21.1875L125.226 21.1875L125.226 20.5605C125.083 20.764 124.887 20.929 124.64 21.0555C124.398 21.1765 124.128 21.237 123.831 21.237C123.479 21.237 123.169 21.16 122.899 21.006C122.63 20.8465 122.421 20.6183 122.272 20.3213C122.124 20.0243 122.049 19.675 122.049 19.2735L122.049 16.584L123.452 16.584L123.452 19.0838C123.452 19.3918 123.532 19.631 123.691 19.8015C123.851 19.972 124.065 20.0573 124.335 20.0573C124.61 20.0573 124.827 19.972 124.986 19.8015C125.146 19.631 125.226 19.3918 125.226 19.0838L125.226 16.584L126.636 16.584ZM130.48 16.5345C131.008 16.5345 131.431 16.7105 131.75 17.0625C132.069 17.409 132.229 17.8875 132.229 18.498L132.229 21.1875L130.826 21.1875L130.826 18.6878C130.826 18.3798 130.746 18.1405 130.587 17.97C130.427 17.7995 130.213 17.7143 129.943 17.7143C129.674 17.7143 129.459 17.7995 129.3 17.97C129.14 18.1405 129.061 18.3798 129.061 18.6878L129.061 21.1875L127.65 21.1875L127.65 15.0825L129.061 15.0825L129.061 17.2028C129.204 16.9993 129.399 16.837 129.646 16.716C129.894 16.595 130.172 16.5345 130.48 16.5345ZM103.429 37.2175C103.765 37.289 104.034 37.4568 104.238 37.7208C104.441 37.9793 104.543 38.2763 104.543 38.6118C104.543 39.0958 104.372 39.4808 104.031 39.7668C103.696 40.0473 103.226 40.1875 102.621 40.1875L99.9229 40.1875L99.9229 34.396L102.53 34.396C103.118 34.396 103.578 34.5308 103.908 34.8003C104.243 35.0698 104.411 35.4355 104.411 35.8975C104.411 36.2385 104.32 36.5218 104.139 36.7473C103.963 36.9728 103.726 37.1295 103.429 37.2175ZM101.334 36.739L102.258 36.739C102.489 36.739 102.665 36.6895 102.786 36.5905C102.912 36.486 102.975 36.3348 102.975 36.1368C102.975 35.9388 102.912 35.7875 102.786 35.683C102.665 35.5785 102.489 35.5263 102.258 35.5263L101.334 35.5263L101.334 36.739ZM102.373 39.049C102.61 39.049 102.791 38.9968 102.918 38.8923C103.05 38.7823 103.116 38.6255 103.116 38.422C103.116 38.2185 103.047 38.059 102.909 37.9435C102.777 37.828 102.593 37.7703 102.357 37.7703L101.334 37.7703L101.334 39.049L102.373 39.049ZM105.081 37.8775C105.081 37.4045 105.169 36.9893 105.345 36.6318C105.526 36.2743 105.771 35.9993 106.079 35.8068C106.387 35.6143 106.731 35.518 107.11 35.518C107.435 35.518 107.718 35.584 107.96 35.716C108.207 35.848 108.397 36.0213 108.529 36.2358L108.529 35.584L109.94 35.584L109.94 40.1875L108.529 40.1875L108.529 39.5358C108.392 39.7503 108.199 39.9235 107.952 40.0555C107.71 40.1875 107.426 40.2535 107.102 40.2535C106.728 40.2535 106.387 40.1573 106.079 39.9648C105.771 39.7668 105.526 39.489 105.345 39.1315C105.169 38.7685 105.081 38.3505 105.081 37.8775ZM108.529 37.8858C108.529 37.5338 108.43 37.256 108.232 37.0525C108.04 36.849 107.803 36.7473 107.523 36.7473C107.242 36.7473 107.003 36.849 106.805 37.0525C106.612 37.2505 106.516 37.5255 106.516 37.8775C106.516 38.2295 106.612 38.51 106.805 38.719C107.003 38.9225 107.242 39.0243 107.523 39.0243C107.803 39.0243 108.04 38.9225 108.232 38.719C108.43 38.5155 108.529 38.2378 108.529 37.8858ZM113.765 35.5345C114.304 35.5345 114.733 35.7105 115.052 36.0625C115.377 36.409 115.539 36.8875 115.539 37.498L115.539 40.1875L114.137 40.1875L114.137 37.6878C114.137 37.3798 114.057 37.1405 113.897 36.97C113.738 36.7995 113.523 36.7143 113.254 36.7143C112.984 36.7143 112.77 36.7995 112.61 36.97C112.451 37.1405 112.371 37.3798 112.371 37.6878L112.371 40.1875L110.96 40.1875L110.96 35.584L112.371 35.584L112.371 36.1945C112.514 35.991 112.707 35.8315 112.949 35.716C113.191 35.595 113.463 35.5345 113.765 35.5345ZM119.085 38.9913L119.085 40.1875L118.368 40.1875C117.856 40.1875 117.457 40.0638 117.171 39.8163C116.885 39.5633 116.742 39.1535 116.742 38.587L116.742 36.7555L116.181 36.7555L116.181 35.584L116.742 35.584L116.742 34.462L118.153 34.462L118.153 35.584L119.077 35.584L119.077 36.7555L118.153 36.7555L118.153 38.6035C118.153 38.741 118.186 38.84 118.252 38.9005C118.318 38.961 118.428 38.9913 118.582 38.9913L119.085 38.9913ZM124.417 35.584L124.417 40.1875L123.006 40.1875L123.006 39.5605C122.863 39.764 122.668 39.929 122.42 40.0555C122.178 40.1765 121.909 40.237 121.612 40.237C121.26 40.237 120.949 40.16 120.68 40.006C120.41 39.8465 120.201 39.6183 120.053 39.3213C119.904 39.0243 119.83 38.675 119.83 38.2735L119.83 35.584L121.232 35.584L121.232 38.0838C121.232 38.3918 121.312 38.631 121.472 38.8015C121.631 38.972 121.846 39.0573 122.115 39.0573C122.39 39.0573 122.607 38.972 122.767 38.8015C122.926 38.631 123.006 38.3918 123.006 38.0838L123.006 35.584L124.417 35.584ZM125.15 37.8775C125.15 37.4045 125.238 36.9893 125.414 36.6318C125.595 36.2743 125.84 35.9993 126.148 35.8068C126.456 35.6143 126.8 35.518 127.179 35.518C127.504 35.518 127.787 35.584 128.029 35.716C128.276 35.848 128.466 36.0213 128.598 36.2358L128.598 35.584L130.009 35.584L130.009 40.1875L128.598 40.1875L128.598 39.5358C128.461 39.7503 128.268 39.9235 128.021 40.0555C127.779 40.1875 127.495 40.2535 127.171 40.2535C126.797 40.2535 126.456 40.1573 126.148 39.9648C125.84 39.7668 125.595 39.489 125.414 39.1315C125.238 38.7685 125.15 38.3505 125.15 37.8775ZM128.598 37.8858C128.598 37.5338 128.499 37.256 128.301 37.0525C128.109 36.849 127.872 36.7473 127.592 36.7473C127.311 36.7473 127.072 36.849 126.874 37.0525C126.681 37.2505 126.585 37.5255 126.585 37.8775C126.585 38.2295 126.681 38.51 126.874 38.719C127.072 38.9225 127.311 39.0243 127.592 39.0243C127.872 39.0243 128.109 38.9225 128.301 38.719C128.499 38.5155 128.598 38.2378 128.598 37.8858ZM133.835 35.5345C134.374 35.5345 134.803 35.7105 135.122 36.0625C135.446 36.409 135.608 36.8875 135.608 37.498L135.608 40.1875L134.206 40.1875L134.206 37.6878C134.206 37.3798 134.126 37.1405 133.967 36.97C133.807 36.7995 133.593 36.7143 133.323 36.7143C133.054 36.7143 132.839 36.7995 132.68 36.97C132.52 37.1405 132.44 37.3798 132.44 37.6878L132.44 40.1875L131.03 40.1875L131.03 35.584L132.44 35.584L132.44 36.1945C132.583 35.991 132.776 35.8315 133.018 35.716C133.26 35.595 133.532 35.5345 133.835 35.5345ZM138.28 34.0743C138.868 34.0743 139.339 34.2283 139.691 34.5363C140.048 34.8443 140.227 35.2788 140.227 35.8398C140.227 36.3568 140.056 36.761 139.715 37.0525C139.38 37.3385 138.934 37.4843 138.379 37.4898L138.338 38.1085L137.1 38.1085L137.059 36.574L137.554 36.574C137.977 36.574 138.299 36.5218 138.519 36.4173C138.745 36.3128 138.857 36.123 138.857 35.848C138.857 35.6555 138.805 35.5043 138.701 35.3943C138.596 35.2843 138.45 35.2293 138.263 35.2293C138.065 35.2293 137.911 35.287 137.801 35.4025C137.691 35.5125 137.636 35.6638 137.636 35.8563L136.308 35.8563C136.297 35.5208 136.366 35.2183 136.514 34.9488C136.668 34.6793 136.894 34.4675 137.191 34.3135C137.493 34.154 137.856 34.0743 138.28 34.0743ZM137.735 40.2535C137.488 40.2535 137.284 40.182 137.125 40.039C136.971 39.8905 136.894 39.709 136.894 39.4945C136.894 39.2745 136.971 39.0903 137.125 38.9418C137.284 38.7933 137.488 38.719 137.735 38.719C137.977 38.719 138.175 38.7933 138.329 38.9418C138.489 39.0903 138.569 39.2745 138.569 39.4945C138.569 39.709 138.489 39.8905 138.329 40.039C138.175 40.182 137.977 40.2535 137.735 40.2535Z" fill="url(#paint2_linear_348_1835)"/>
<defs>
<filter id="filter0_d_348_1835" x="0.7" y="14.9" width="114.675" height="114.675" filterUnits="userSpaceOnUse" color-interpolation-filters="sRGB">
<feFlood flood-opacity="0" result="BackgroundImageFix"/>
<feColorMatrix in="SourceAlpha" type="matrix" values="0 0 0 0 0 0 0 0 0 0 0 0 0 0 0 0 0 0 127 0" result="hardAlpha"/>
<feOffset/>
<feGaussianBlur stdDeviation="1.65"/>
<feComposite in2="hardAlpha" operator="out"/>
<feColorMatrix type="matrix" values="0 0 0 0 0 0 0 0 0 0 0 0 0 0 0 0 0 0 0.25 0"/>
<feBlend mode="normal" in2="BackgroundImageFix" result="effect1_dropShadow_348_1835"/>
<feBlend mode="normal" in="SourceGraphic" in2="effect1_dropShadow_348_1835" result="shape"/>
</filter>
<filter id="filter1_d_348_1835" x="85.6748" y="0.875" width="69.3516" height="60.6504" filterUnits="userSpaceOnUse" color-interpolation-filters="sRGB">
<feFlood flood-opacity="0" result="BackgroundImageFix"/>
<feColorMatrix in="SourceAlpha" type="matrix" values="0 0 0 0 0 0 0 0 0 0 0 0 0 0 0 0 0 0 127 0" result="hardAlpha"/>
<feOffset/>
<feGaussianBlur stdDeviation="2.0625"/>
<feComposite in2="hardAlpha" operator="out"/>
<feColorMatrix type="matrix" values="0 0 0 0 0 0 0 0 0 0 0 0 0 0 0 0 0 0 0.25 0"/>
<feBlend mode="normal" in2="BackgroundImageFix" result="effect1_dropShadow_348_1835"/>
<feBlend mode="normal" in="SourceGraphic" in2="effect1_dropShadow_348_1835" result="shape"/>
</filter>
<linearGradient id="paint0_linear_348_1835" x1="2.67905" y1="102.924" x2="111.218" y2="102.924" gradientUnits="userSpaceOnUse">
<stop stop-color="#91A659"/>
<stop offset="1" stop-color="#4E773F"/>
</linearGradient>
<linearGradient id="paint1_linear_348_1835" x1="2.67905" y1="102.924" x2="111.218" y2="102.924" gradientUnits="userSpaceOnUse">
<stop stop-color="#91A659"/>
<stop offset="1" stop-color="#4E773F"/>
</linearGradient>
<linearGradient id="paint2_linear_348_1835" x1="80.2367" y1="32.0815" x2="152.227" y2="32.0815" gradientUnits="userSpaceOnUse">
<stop stop-color="#91A659"/>
<stop offset="1" stop-color="#4E773F"/>
</linearGradient>
</defs>
</svg>
